<svg width="80" height="80" viewBox="0 0 80 80" fill="none" xmlns="http://www.w3.org/2000/svg">
<path d="M77.1413 64.6595L50.7802 40.6573C50.4422 40.3192 50.3295 39.8685 50.5549 39.4177C55.9623 29.2759 54.3851 16.4296 45.8234 7.86542C34.6706 -3.29057 16.0827 -2.61445 5.83112 10.1192C-1.82937 19.6975 -1.94202 33.4453 5.49316 43.1364C9.21074 47.8692 14.0549 51.0244 19.237 52.6021C19.6876 52.7147 19.9129 53.0528 19.9129 53.5036L19.3496 72.6603C19.237 76.4916 22.2786 79.9849 25.9962 79.9849C29.9391 80.0976 33.2061 76.8297 33.0934 72.8857L32.5302 53.8416C32.5302 53.3909 32.7555 53.0528 33.2061 52.9401C35.3465 52.3767 37.3743 51.7006 39.4021 50.5737C39.8527 50.3483 40.3033 50.461 40.6413 50.7991L64.4113 76.9424C67.6783 80.5484 73.4237 81.1118 77.0286 77.8439C80.9715 74.2379 80.9715 68.1528 77.1413 64.6595ZM26.1089 75.7028C24.1938 75.7028 22.7293 74.1252 22.7293 72.3222C22.7293 70.4066 24.3064 68.9416 26.1089 68.9416C28.024 68.9416 29.4885 70.5192 29.4885 72.3222C29.6012 74.1252 28.024 75.7028 26.1089 75.7028ZM41.0919 38.5162C38.9515 41.108 36.2478 42.911 33.4314 44.0379C32.8681 44.2632 32.1922 43.8125 32.1922 43.2491L32.0796 38.967C32.0796 38.5162 32.3049 38.0655 32.7555 37.8401C36.4731 35.5864 39.0641 31.5296 39.0641 26.7968C39.0641 21.3878 35.6845 16.7677 30.953 14.852C30.5024 14.6266 30.0518 15.0774 30.1644 15.5281L32.0796 22.9654C32.7555 25.7826 31.4036 28.9378 28.5873 29.952C25.433 31.0789 22.0533 29.2759 21.1521 26.008L18.899 17.3311C18.7864 16.8804 18.2231 16.7677 17.8851 16.993C15.0688 19.3595 13.379 22.8528 13.379 26.7968C13.379 31.5296 15.8573 35.5864 19.6876 37.8401C20.1382 38.0655 20.3635 38.5162 20.3635 38.967L20.2509 42.6856C20.2509 43.3617 19.5749 43.8125 18.899 43.4744C16.6459 42.4603 14.6181 40.8826 12.8157 38.8543C6.845 31.8677 6.95766 21.3878 13.041 14.5139C20.7015 5.94975 34.22 6.28781 41.4299 15.5281C46.6119 22.2893 46.4993 31.9804 41.0919 38.5162Z" fill="url(#paint0_linear_70_1150)"/>
<defs>
<linearGradient id="paint0_linear_70_1150" x1="72.8685" y1="62.7956" x2="7.13151" y2="17.204" gradientUnits="userSpaceOnUse">
<stop stop-color="#AE2B21"/>
<stop offset="1" stop-color="#DF2024"/>
</linearGradient>
</defs>
</svg>
