<svg width="97" height="80" viewBox="0 0 97 80" fill="none" xmlns="http://www.w3.org/2000/svg">
<path fill-rule="evenodd" clip-rule="evenodd" d="M77.7241 0.00550944C74.2833 -0.112388 72.1858 1.67378 71.031 4.2204C70.4418 4.01997 70.324 3.90207 69.2753 3.87849C68.2148 3.87849 66.5297 4.36188 65.5281 5.23669C64.8211 4.81225 64.9389 4.58824 63.0182 4.54108C61.0739 4.54108 57.5625 6.82007 57.4918 9.81471C57.4918 10.4042 57.4918 10.9701 57.7274 11.4959C57.8453 11.9322 58.1988 12.2033 58.6701 12.2033H82.1193C82.355 12.2033 82.7085 12.0854 82.8263 11.885C83.8868 10.6707 84.5467 9.06959 84.5938 7.32468C84.5938 3.37506 81.1295 0.084502 77.6887 0.00197299L77.7241 0.00550944ZM7.02299 0.877964C6.55164 0.877964 6.08029 1.29061 6.08029 1.82116C5.01978 25.2123 3.84142 48.6282 2.72198 72.0312H19.7963C18.618 48.6282 17.5339 25.2123 16.4144 1.82116C16.4144 1.29061 15.9431 0.877964 15.4718 0.877964H7.09369H7.02299ZM32.3693 7.71729C31.898 7.71729 31.4266 8.14172 31.4266 8.66048C30.8374 20.7333 30.0597 35.4684 29.4588 47.553L43.4812 44.8826L41.749 8.66048C41.749 8.12993 41.2776 7.71729 40.8063 7.71729H32.4518H32.3693ZM55.2176 15.2015C54.7462 15.2015 54.2749 15.6024 54.2749 16.1211C53.6857 24.3033 52.9198 35.1795 52.3188 43.3617C52.3188 44.7647 52.0831 46.15 52.0831 47.553L66.7418 44.859C66.0348 35.2856 65.3749 25.7063 64.6915 16.1211C64.6915 15.6024 64.2201 15.2015 63.7488 15.2015H55.3472H55.2176ZM46.0382 46.6794L23.2489 50.9391C22.424 51.0805 21.9173 51.7526 21.9173 52.5519C21.9173 59.8263 21.9173 64.3807 21.9173 72.0324H93.2783V47.6697C93.2783 47.1274 92.807 46.5851 92.3356 46.6794L69.2164 50.9851V46.6794L46.1089 50.9851V46.6794H46.0382ZM27.7148 55.6138H42.6917V62.4991H27.7148V55.6138ZM50.0799 55.6138H65.0686V62.4991H50.0799V55.6138ZM72.4568 55.6138H87.4337V62.4991H72.4568V55.6138ZM0.942673 74.105C0.353524 74.105 0 74.5531 0 75.0954V79.0097C0 79.552 0.471354 80 0.942673 80H95.1048C95.6939 80 96.0474 79.552 96.0474 79.0097V75.0954C96.0474 74.5531 95.5761 74.105 95.1048 74.105H0.942673Z" fill="url(#paint0_linear_70_1002)"/>
<defs>
<linearGradient id="paint0_linear_70_1002" x1="87.4854" y1="62.7956" x2="18.4583" y2="5.31899" gradientUnits="userSpaceOnUse">
<stop stop-color="#AE2B21"/>
<stop offset="1" stop-color="#DF2024"/>
</linearGradient>
</defs>
</svg>
