<svg width="40" height="40" viewBox="0 0 40 40" fill="none" xmlns="http://www.w3.org/2000/svg">
<g transform="translate(0.000000,40.000000) scale(0.100000,-0.100000)"
fill="#E8363A" stroke="none">
<path d="M0 200 l0 -200 200 0 200 0 0 200 0 200 -200 0 -200 0 0 -200z m255
114 c13 -9 29 -31 36 -51 15 -46 -6 -101 -61 -163 l-40 -45 -35 40 c-19 22
-44 59 -56 83 -25 50 -20 84 19 125 20 21 35 27 69 27 24 0 55 -7 68 -16z"/>
<path d="M155 260 c-27 -30 -7 -70 35 -70 42 0 62 40 35 70 -10 11 -26 20 -35
20 -9 0 -25 -9 -35 -20z"/>
</g>
</svg>
