<svg width="209" height="70" viewBox="0 0 209 70" fill="none" xmlns="http://www.w3.org/2000/svg">
<path d="M35.0284 70C54.374 70 70.0568 54.33 70.0568 35C70.0568 15.67 54.374 0 35.0284 0C15.6827 0 0 15.67 0 35C0 54.33 15.6827 70 35.0284 70Z" fill="url(#paint0_linear_70_950)"/>
<path fill-rule="evenodd" clip-rule="evenodd" d="M14.7932 27.8939C12.9665 28.7641 11.9135 29.1738 9.38235 29.1623C9.4819 29.588 10.7973 31.5836 11.1227 32.0253C11.483 32.5143 11.6149 33.0183 12.1109 33.3278C12.8645 33.7984 12.7381 33.3668 13.3518 34.3298L18.9199 42.5112C19.221 42.9529 19.4928 43.4833 19.8186 43.9198L21.2273 45.9307C21.7017 46.5714 22.0818 47.3601 22.645 47.9552C26.2382 51.7517 32.4642 55.0456 37.8631 54.9319C41.055 54.8648 43.1827 54.4746 45.8497 53.5804C50.0701 52.1652 53.6761 49.3304 56.1206 45.6612C56.4262 45.2024 56.6622 44.7701 56.9557 44.2509C57.6358 43.0475 58.6153 40.8109 58.8593 39.4973C59.2686 37.2958 59.5645 35.7018 59.2902 33.4147L58.7608 31.0546C57.2682 26.7994 54.7329 23.7941 50.6287 21.5516C48.9423 20.6299 45.7104 19.7556 43.8145 19.549C40.8861 19.2304 38.3271 19.3595 35.6786 20.1858C34.4318 20.5746 33.4725 20.9969 32.4214 21.5711L29.6785 23.4203C29.9016 22.5957 32.8679 20.9391 33.5084 20.6258C34.2289 20.2731 35.1231 19.909 35.8878 19.6474C36.5255 19.4297 37.2279 19.2534 37.9282 19.1796C38.3254 19.1376 38.4907 19.1908 38.647 18.9553C38.3706 18.7884 37.7027 18.7585 37.4016 18.7066C35.7583 18.4239 35.1311 18.1436 33.8175 19.2809C32.6354 20.3044 31.6747 21.2149 30.5327 22.2531C29.5445 23.1511 27.423 25.0111 26.5727 26.0826C25.8776 26.9587 25.3032 27.9019 24.2865 28.5606C24.5121 30.9698 25.3193 32.7007 26.5354 34.6042C27.3739 35.9164 27.5257 35.5112 27.5671 36.4447C27.2316 36.3943 27.3339 36.4482 27.1414 36.2162C27.0927 36.1571 26.9402 35.9449 26.8647 35.8458C25.7892 34.438 24.384 31.4028 24.0704 29.7487C23.5441 26.9754 24.2594 26.8554 23.4675 25.2799L21.9572 22.3536C21.8291 22.1018 21.9503 22.1101 21.6746 22.0521C21.2426 22.9466 21.1201 23.2763 20.4072 24.0292C20.1587 24.2918 20.1037 24.4501 19.71 24.5722C19.8266 24.0832 20.434 23.6042 20.7393 23.1688C21.0393 22.741 21.4323 22.1327 21.3965 21.4462C21.2729 19.0976 15.0361 21.2393 14.1283 22.3435L12.4994 23.79C12.4381 23.8484 12.2808 24.007 12.224 24.0964C11.98 24.48 12.1074 24.2664 12.1558 24.5207C12.2933 25.243 15.7869 23.9559 16.1566 23.7938C16.9745 23.4345 19.3167 22.0423 19.4027 22.0253C19.3494 22.4576 18.5593 23.3354 18.2412 23.6801C17.9993 23.9423 17.7848 24.1005 17.5095 24.336C17.3741 24.4518 17.2443 24.5492 17.1124 24.6671C16.9846 24.7812 16.8645 24.9078 16.7291 25.0017C14.198 26.7594 7.95978 28.7832 10.4053 25.4555C11.3876 24.119 13.183 23.1605 13.3967 22.6596C12.3149 22.8683 6.80835 27.2317 9.30195 28.0828C11.5714 28.8569 17.199 25.4688 18.89 23.9628C19.2294 23.6602 19.6446 23.1031 20.0174 22.9511C19.7518 24.0612 16.2036 26.2096 15.1994 26.7232C14.2324 27.2181 13.2867 27.6574 12.2017 28.0139C9.74087 28.8225 9.59294 28.2292 8.67298 27.9822C8.76174 28.6065 9.27898 28.7491 9.85817 28.8225C11.0204 28.9703 12.2254 28.6434 13.2877 28.3147C13.6337 28.208 14.5481 27.7997 14.7932 27.8939V27.8939Z" fill="#FFED00"/>
<path fill-rule="evenodd" clip-rule="evenodd" d="M14.3904 33.2004C14.4064 33.1879 14.412 33.1719 14.4408 33.1667L15.7945 32.7761C16.2668 32.6192 16.7256 32.4673 17.2174 32.2728C19.3007 31.4489 21.2467 29.9075 22.7274 28.2343C22.8388 28.1084 22.7626 28.1981 22.8367 28.0993C23.0069 27.8719 23.1124 27.5891 23.3822 27.4427C23.6655 27.7655 23.6394 30.3541 24.3456 31.571C24.5667 31.9518 24.6697 32.3153 24.8949 32.7563C25.1246 33.2067 25.2865 33.4188 25.4584 33.8515L26.0776 34.9495C26.22 35.1884 26.2576 35.1748 26.4243 35.4103C26.7049 35.8061 27.1953 36.7294 27.6234 36.7806C27.8337 36.2436 27.8984 35.4412 28.022 34.8733C28.0958 34.5335 28.1313 34.4368 28.3774 34.273L28.4334 35.1644C28.9858 35.3028 29.0958 34.8128 29.3582 34.3613C29.5664 34.0038 29.7557 33.5332 30.131 33.374C30.0968 33.6428 30.0311 33.7207 30.21 33.8949C30.2824 33.7638 30.1957 33.8949 30.3092 33.752C30.6308 33.3472 30.7878 33.2529 31.1421 32.7333C35.3012 26.639 44.34 25.1553 49.9325 30.216C50.4477 30.682 51.7446 31.9362 51.8775 32.6436C51.6795 32.5452 51.8271 32.6488 51.6562 32.4923C51.2827 32.1504 50.9364 31.6221 50.6005 31.2649C49.2607 29.8418 47.6015 28.885 45.6676 28.2482C42.113 27.0775 38.0354 27.6945 34.8943 29.6488C32.1258 31.3714 29.9782 34.3026 29.5371 37.5582C29.4261 38.3797 29.2956 40.4487 29.3944 41.2709C29.4651 41.8573 29.6175 41.9717 30.2329 41.8882C30.3099 41.0059 30.1097 40.3879 30.0638 39.6151C29.9468 37.6507 30.4136 35.7379 31.3993 34.0553C32.6764 31.8757 33.973 30.6038 36.3134 29.3684C39.8603 27.4959 44.1743 27.5843 47.6993 29.5952C48.4758 30.0379 50.1065 31.1022 50.3411 31.8638C49.8159 31.7425 49.7393 31.4329 49.0582 30.9185C47.6972 29.8908 46.4483 29.3211 44.7086 28.8666C42.3327 28.2454 39.2815 28.587 37.2226 29.4971C34.9163 30.5168 33.7861 31.4131 32.3322 33.2686C31.06 34.8928 30.1292 37.2877 30.2959 39.8293C30.7401 39.6133 30.3878 39.965 30.7432 39.037C31.0861 38.1415 31.3113 37.377 31.8278 36.527C36.1304 29.4425 46.5962 28.5077 51.9513 34.7213C52.2542 35.0729 52.2448 34.8997 52.4919 35.4131C52.6186 35.6756 53.2319 36.7604 53.4397 36.7802C53.4947 35.3157 53.1543 33.8581 52.5984 32.5681C51.9747 31.1217 51.7366 30.4702 50.7936 29.182C49.3317 27.185 47.2005 25.8801 44.7949 25.1129C42.0434 24.235 38.7701 24.5282 36.0406 25.4864C33.7955 26.2748 31.8334 27.6389 30.3944 29.4849C30.1529 29.7948 30.2542 29.7054 29.9005 29.8115C29.9827 29.2766 30.361 28.9243 30.7056 28.5237C35.0827 23.4358 44.474 22.67 49.5162 27.1022C50.1567 27.6653 50.6394 28.227 51.1751 28.8426C51.4299 29.1351 51.2597 29.0116 51.5799 29.1208C51.3429 28.0162 48.9596 26.2195 48.1998 25.7507C47.4779 25.3052 46.6888 24.947 45.9732 24.6969C44.898 24.3216 44.0964 24.2437 43.45 24.0288C46.5527 23.825 50.6997 26.5618 52.3523 29.1093C52.5309 29.3844 52.6165 29.4067 52.7672 29.6262C52.936 29.2874 52.0196 28.3386 51.9301 27.9647C52.1215 28.0541 51.9747 27.9714 52.1111 28.0705L52.5427 28.5407C53.054 29.213 53.5344 30.4695 53.8804 30.9015L53.9514 30.5808C53.9451 30.4762 53.8905 30.3103 53.865 30.2324C53.6513 29.5743 53.2159 29.0259 53.0881 28.315C53.5452 28.4165 53.8316 29.0846 54.0481 29.3657C54.9556 30.5419 55.5041 32.0715 55.6796 33.655C55.8686 35.363 55.8668 38.1992 55.3527 39.8394C55.2591 40.1388 55.281 40.4056 55.1877 40.7165C54.6639 42.4631 54.225 43.2857 53.6402 44.8493C50.4675 53.3327 37.8993 55.2768 32.4112 48.0351C31.8188 47.2536 31.4376 46.5333 30.9785 45.5352C30.376 44.2251 30.5246 43.6881 30.2865 42.132C29.2799 42.0834 29.078 42.1216 28.6892 41.3439C28.0933 40.1521 28.6854 40.2703 27.212 37.6577L25.2165 34.6858C24.6554 33.8108 23.8823 32.1184 23.6032 31.1975C23.4841 30.8059 23.1302 29.382 23.0129 29.2071C22.5409 29.2471 21.7824 30.3871 21.0619 30.5641C21.1872 30.289 21.1646 30.3405 21.4002 30.1228C21.7483 29.8011 22.3825 29.3542 22.4862 28.8485C22.2217 29.0074 21.9279 29.3497 21.7187 29.5618C19.8746 31.4315 17.1924 33.0891 14.3904 33.2004V33.2004Z" fill="#FFED00"/>
<path fill-rule="evenodd" clip-rule="evenodd" d="M18.7939 29.2214C18.3233 29.4924 18.4002 29.3007 18.373 29.2865C18.6518 29.003 19.2651 28.6215 19.5836 28.3095C22.6258 25.3269 18.0135 26.6784 17.5411 26.7045C17.6772 26.3887 17.5335 26.5657 17.8603 26.3435C19.0097 25.5627 20.5119 24.3725 21.2631 23.1914L21.5537 22.7393L21.866 22.7285C22.0473 22.9156 22.0487 23.0273 22.1371 23.2266C22.238 23.4537 22.3682 23.6025 22.4845 23.8581C22.6971 24.3252 22.9836 24.7078 23.1524 25.1756C23.3804 25.8079 23.8423 25.8127 23.4709 26.572C22.6425 28.2647 19.8447 31.0146 18.5544 31.2779C18.6953 30.8578 18.5001 31.1802 18.8005 30.9225C19.2644 30.5243 19.5314 30.4686 20.4204 29.6197C20.7967 29.2604 21.8221 28.1235 21.4215 27.4449C21.1092 27.174 20.0003 28.5272 18.7939 29.2214V29.2214Z" fill="#FFED00"/>
<path fill-rule="evenodd" clip-rule="evenodd" d="M43.3226 51.8577C40.1113 52.3616 36.8352 51.1892 34.8414 49.7181C32.9483 48.3213 31.0408 45.8649 30.8226 42.6579C30.6315 39.8477 31.3732 38.3947 32.5341 36.4105C33.7464 34.3384 36.5334 32.3594 38.9268 31.6757C39.3532 31.5536 39.5996 31.4472 39.9571 31.3446C40.2822 31.2517 40.8269 31.2138 41.2039 31.1547C46.7706 30.2814 53.2709 34.1728 53.6628 40.3141C53.888 43.8435 52.4982 46.2436 50.7595 48.1297C48.9938 50.0453 46.4949 51.36 43.3226 51.8577V51.8577ZM22.8367 28.0993C22.7626 28.1981 22.8388 28.1084 22.7274 28.2343C21.2467 29.9075 19.3007 31.4489 17.2174 32.2728C16.7256 32.4673 16.2668 32.6192 15.7945 32.7761L14.4408 33.1667C14.412 33.1719 14.4064 33.1879 14.3904 33.2004C17.1924 33.0891 19.8746 31.4315 21.7187 29.5618C21.9279 29.3497 22.2217 29.0074 22.4862 28.8485C22.3825 29.3542 21.7483 29.8011 21.4002 30.1228C21.1646 30.3405 21.1872 30.289 21.0619 30.5641C21.7824 30.3871 22.5409 29.2471 23.0129 29.2071C23.1302 29.382 23.4841 30.8059 23.6032 31.1975C23.8823 32.1184 24.6554 33.8108 25.2165 34.6858L27.212 37.6577C28.6854 40.2703 28.0933 40.1521 28.6892 41.3439C29.078 42.1216 29.2799 42.0834 30.2865 42.132C30.5246 43.6881 30.376 44.2251 30.9785 45.5352C31.4376 46.5333 31.8188 47.2536 32.4112 48.0351C37.8993 55.2768 50.4675 53.3327 53.6402 44.8493C54.225 43.2857 54.6639 42.4631 55.1877 40.7165C55.281 40.4056 55.2591 40.1388 55.3527 39.8394C55.8668 38.1992 55.8686 35.363 55.6796 33.655C55.5041 32.0715 54.9556 30.5419 54.0481 29.3657C53.8316 29.0846 53.5452 28.4165 53.0881 28.315C53.2159 29.0259 53.6513 29.5743 53.865 30.2324C53.8905 30.3103 53.9451 30.4762 53.9514 30.5808L53.8804 30.9015C53.5344 30.4695 53.054 29.213 52.5427 28.5407L52.1111 28.0705C51.9747 27.9714 52.1215 28.0541 51.9301 27.9647C52.0196 28.3386 52.936 29.2874 52.7672 29.6262C52.6165 29.4067 52.5309 29.3844 52.3523 29.1093C50.6997 26.5618 46.5527 23.825 43.45 24.0288C44.0964 24.2437 44.898 24.3216 45.9732 24.6969C46.6888 24.947 47.4779 25.3052 48.1998 25.7507C48.9596 26.2195 51.3429 28.0162 51.5799 29.1208C51.2597 29.0116 51.4299 29.1351 51.1751 28.8426C50.6394 28.227 50.1567 27.6653 49.5162 27.1022C44.474 22.67 35.0827 23.4358 30.7056 28.5237C30.361 28.9243 29.9827 29.2766 29.9005 29.8115C30.2542 29.7054 30.1529 29.7948 30.3944 29.4849C31.8334 27.6389 33.7955 26.2748 36.0406 25.4864C38.7701 24.5282 42.0434 24.235 44.7949 25.1129C47.2005 25.8801 49.3317 27.185 50.7936 29.182C51.7366 30.4702 51.9747 31.1217 52.5984 32.5681C53.1543 33.8581 53.4947 35.3157 53.4397 36.7802C53.2319 36.7604 52.6186 35.6756 52.4919 35.4131C52.2448 34.8997 52.2542 35.0729 51.9513 34.7213C46.5962 28.5077 36.1304 29.4425 31.8278 36.527C31.3113 37.377 31.0861 38.1415 30.7432 39.037C30.3878 39.965 30.7401 39.6133 30.2959 39.8293C30.1292 37.2877 31.06 34.8928 32.3322 33.2686C33.7861 31.4131 34.9163 30.5168 37.2226 29.4971C39.2815 28.587 42.3327 28.2454 44.7086 28.8666C46.4483 29.3211 47.6972 29.8908 49.0582 30.9185C49.7393 31.4329 49.8159 31.7425 50.3411 31.8638C50.1065 31.1022 48.4758 30.0379 47.6993 29.5952C44.1743 27.5843 39.8603 27.4959 36.3134 29.3684C33.973 30.6038 32.6764 31.8757 31.3993 34.0553C30.4136 35.7379 29.9468 37.6507 30.0638 39.6151C30.1097 40.3879 30.3099 41.0059 30.2329 41.8882C29.6175 41.9717 29.4651 41.8573 29.3944 41.2709C29.2956 40.4487 29.4261 38.3797 29.5371 37.5582C29.9782 34.3026 32.1258 31.3714 34.8943 29.6488C38.0354 27.6945 42.113 27.0775 45.6676 28.2482C47.6015 28.885 49.2607 29.8418 50.6005 31.2649C50.9364 31.6221 51.2827 32.1504 51.6562 32.4923C51.8271 32.6488 51.6795 32.5452 51.8775 32.6436C51.7446 31.9362 50.4477 30.682 49.9325 30.216C44.34 25.1553 35.3012 26.639 31.1421 32.7333C30.7878 33.2529 30.6308 33.3472 30.3092 33.752C30.1957 33.8949 30.2824 33.7638 30.21 33.8949C30.0311 33.7207 30.0968 33.6428 30.131 33.374C29.7557 33.5332 29.5664 34.0038 29.3582 34.3613C29.0958 34.8128 28.9858 35.3028 28.4334 35.1644L28.3774 34.273C28.1313 34.4368 28.0958 34.5335 28.022 34.8733C27.8984 35.4412 27.8337 36.2436 27.6234 36.7806C27.1953 36.7294 26.7049 35.8061 26.4243 35.4103C26.2576 35.1748 26.22 35.1884 26.0776 34.9495L25.4584 33.8515C25.2865 33.4188 25.1246 33.2067 24.8949 32.7563C24.6697 32.3153 24.5667 31.9518 24.3456 31.571C23.6394 30.3541 23.6655 27.7655 23.3822 27.4427C23.1124 27.5891 23.0069 27.8719 22.8367 28.0993V28.0993Z" fill="#D42223"/>
<path fill-rule="evenodd" clip-rule="evenodd" d="M34.4666 42.7335C33.539 41.9305 32.9253 39.2028 33.216 37.9361C33.2762 37.6739 33.3162 37.7013 33.4774 37.5803C33.6086 37.4819 33.6309 37.5713 33.7381 37.2447C33.8693 36.8437 34.2327 36.034 34.7252 35.977C34.5167 36.4726 34.776 36.2316 34.8206 36.2869C35.2379 36.249 38.5714 36.5408 38.9289 36.7585C39.5579 37.1424 39.67 37.1292 39.9251 36.6479L36.6682 34.8867C36.3862 34.7472 36.5147 34.7263 36.208 34.711C36.1294 34.5396 36.1294 34.5535 36.1861 34.3876C36.9891 34.3135 36.366 34.2777 36.6616 34.1285C37.0302 33.9424 38.6477 35.1927 39.0594 35.4306C39.7733 35.8431 39.5666 35.9092 40.1604 35.9885L39.3275 33.6996C39.2063 33.3825 39.0657 33.2426 39.0399 33.0409C39.758 32.9453 38.9975 32.8709 39.6115 32.8524C39.6842 33.3519 40.0267 33.9108 40.1527 34.334C40.183 34.4356 40.1917 34.494 40.2262 34.6043C40.2345 34.631 40.285 34.7653 40.2927 34.7882L40.4225 35.9766C40.1681 36.0222 40.0695 35.9739 39.9408 36.4848C40.3383 36.3547 40.3142 36.2469 40.6592 36.1554C40.9035 36.0907 41.1315 36.0991 41.3776 36.1537C41.9885 36.2886 41.8576 36.5808 42.3738 36.7616C42.2603 35.9787 42.2589 36.6934 42.1068 36.2239C43.0062 35.9492 43.8823 35.6236 44.8587 35.3131C45.3335 35.1621 45.8333 34.9997 46.3102 34.8373C47.4097 34.4624 47.1897 34.7455 47.2653 34.8063C47.4501 34.9552 47.2712 34.9684 47.6586 34.9966C47.5371 34.5778 47.3485 34.3431 47.1678 34.0902C47.0975 33.9918 46.959 33.8047 46.9224 33.7584C46.638 33.4016 46.7898 33.8002 46.6878 33.2583C47.1187 33.2607 47.5131 33.4172 47.7623 33.7706C47.8486 33.8927 47.8511 33.9021 47.9203 34.0763L48.344 33.9918C48.4376 34.0847 48.4306 34.1055 48.4974 34.2095C49.4616 34.6446 50.6336 36.2288 51.2208 37.1212C51.8943 38.1444 52.4088 40.4374 52.2041 41.9399C51.7606 45.19 50.1087 47.3212 47.7355 48.87C45.1845 50.5352 41.7626 51.1553 38.5812 50.1119C36.5986 49.4623 34.8046 48.1535 33.6653 46.5088C33.4468 46.1934 32.674 44.9184 32.8348 44.5198C33.5435 45.8341 34.0604 46.8667 35.2202 47.9421C35.878 48.5524 37.8081 49.9363 39.0758 49.9596C38.8147 49.5189 39.0177 49.8365 38.3678 49.5026C38.0549 49.3419 37.9195 49.2522 37.9007 48.8933C39.0027 48.6867 40.3212 49.3308 42.3891 48.6314C41.986 48.3257 40.9255 48.7618 40.1764 48.541C40.4733 48.3671 41.1409 48.3792 41.5381 48.3298C41.9575 48.2777 42.4803 48.2502 42.7626 47.9201C41.2996 47.9608 38.6376 48.2975 38.1906 47.0215C38.1652 46.1968 40.4844 46.4274 42.119 45.7534C41.9384 45.5917 42.1023 45.6612 41.821 45.6108C41.7657 45.6007 41.561 45.6157 41.4973 45.6223C40.0595 45.7708 38.7893 45.576 37.4635 45.0533C36.1628 44.5407 35.1958 43.7258 34.4666 42.7335V42.7335ZM42.4765 51.0986C47.6958 50.8593 52.8083 46.6417 52.6938 41.1706C52.6447 38.8369 52.4613 38.7687 51.699 37.0433C50.2799 33.8322 45.9865 31.7019 41.9216 31.936C36.5321 32.2462 31.6702 36.6823 31.7534 41.8015C31.8487 47.693 36.892 51.3542 42.4765 51.0986Z" fill="#D42223"/>
<path fill-rule="evenodd" clip-rule="evenodd" d="M42.3104 36.8627C42.7633 36.4419 47.0206 35.5292 47.3213 35.5091C47.4094 36.6815 47.211 37.1371 47.2259 38.0139C46.7257 37.9878 46.355 37.8261 45.9718 37.7475L43.5666 37.206C43.3125 37.1503 42.4855 36.9924 42.3104 36.8627ZM46.1198 39.3922C46.0025 39.8742 45.5183 40.2533 45.4059 40.6974C45.1876 40.8546 45.2868 40.7583 45.024 40.8689C44.8998 40.4901 42.8468 38.3697 42.5332 38.1923C42.0724 38.3717 42.8747 38.4041 42.0797 38.539C42.1274 37.8942 42.2032 37.5377 42.8576 37.6431L44.3957 38.0719C44.6853 38.1533 45.0282 38.2778 45.3185 38.3457C45.4727 38.3818 45.6425 38.3957 45.8211 38.4354L46.1385 38.5237C46.164 38.5331 46.1859 38.5432 46.2096 38.5529L46.3582 38.6225C46.284 38.9293 46.1775 39.0343 46.1198 39.3922V39.3922ZM44.141 41.393C43.7107 41.8083 41.8367 42.7574 41.1092 42.7981L40.9467 42.5077C40.3727 42.5032 39.8896 42.5866 39.2975 42.5247C38.9296 42.4865 38.215 42.3581 37.9557 42.3658C37.688 42.1008 37.6598 42.2507 37.6066 41.722C37.9362 41.818 37.704 41.7502 37.8715 41.9046C38.2891 42.2889 37.6376 41.8636 38.0062 42.0674C38.3205 41.9029 38.8509 40.7632 39.0504 40.4046C39.2303 40.0811 39.9206 38.6656 40.1211 38.6635C40.16 38.6628 40.1799 38.6597 40.1976 38.6611C40.2136 38.6625 40.2488 38.6632 40.2676 38.6653C40.7452 38.7181 40.364 38.6646 41.0034 38.627C41.3038 38.6093 41.1782 38.6451 41.4946 38.5352C41.8722 38.8155 41.5502 38.6229 42.118 38.5143C42.1761 38.9574 43.0933 40.0526 43.433 40.4818C43.6937 40.8112 43.741 40.8094 43.7532 41.0584C43.7535 41.0692 43.7494 41.0946 43.749 41.1033C43.748 41.1193 43.7414 41.1544 43.7243 41.1753L44.2019 41.1572L44.141 41.393V41.393ZM36.5188 41.4341C36.0862 41.1899 35.2428 40.5566 35.0308 40.2342L34.8808 39.6513C35.4005 39.7991 35.0319 39.6687 35.2383 40.0895C36.0469 39.9399 39.1565 37.7899 39.6619 38.0215C40.1426 38.2417 40.0299 38.2497 40.0727 38.5053C39.9724 38.5971 40.0309 38.5975 39.8353 38.651C39.3132 38.795 39.8461 38.2472 39.2484 38.9536L37.964 40.7381C37.8394 40.9009 37.7448 41.0397 37.6417 41.2156L37.3424 41.7474C37.0155 41.6118 36.8631 41.4932 36.5188 41.4341ZM34.4666 42.7334C35.1958 43.7257 36.1628 44.5405 37.4635 45.0532C38.7893 45.5759 40.0594 45.7707 41.4973 45.6222C41.561 45.6156 41.7657 45.6006 41.821 45.6107C42.1023 45.6611 41.9383 45.5916 42.119 45.7533C40.4844 46.4273 38.1652 46.1967 38.1906 47.0213C38.6376 48.2974 41.2996 47.9607 42.7626 47.92C42.4803 48.2501 41.9575 48.2775 41.5381 48.3297C41.1409 48.3791 40.4733 48.3669 40.1764 48.5408C40.9254 48.7617 41.986 48.3255 42.3891 48.6313C40.3212 49.3307 39.0027 48.6866 37.9007 48.8931C37.9195 49.2521 38.0549 49.3418 38.3678 49.5025C39.0177 49.8364 38.8147 49.5188 39.0758 49.9595C37.8081 49.9362 35.878 48.5523 35.2202 47.9419C34.0604 46.8666 33.5435 45.834 32.8348 44.5197C32.674 44.9182 33.4467 46.1932 33.6653 46.5087C34.8046 48.1534 36.5986 49.4621 38.5812 50.1118C41.7626 51.1552 45.1845 50.5351 47.7355 48.8698C50.1087 47.3211 51.7606 45.1899 52.2041 41.9397C52.4087 40.4373 51.8943 38.1443 51.2208 37.1211C50.6336 36.2287 49.4616 34.6445 48.4974 34.2094C48.4306 34.1054 48.4376 34.0845 48.3439 33.9917L47.9203 34.0762C47.8511 33.9019 47.8486 33.8925 47.7623 33.7705C47.5131 33.4171 47.1187 33.2606 46.6878 33.2582C46.7898 33.8 46.638 33.4015 46.9224 33.7583C46.959 33.8046 47.0975 33.9917 47.1678 34.0901C47.3485 34.3429 47.5371 34.5777 47.6586 34.9964C47.2712 34.9683 47.4501 34.955 47.2653 34.8062C47.1897 34.7453 47.4097 34.4622 46.3101 34.8371C45.8333 34.9996 45.3335 35.162 44.8587 35.3129C43.8823 35.6235 43.0062 35.949 42.1068 36.2238C42.2589 36.6933 42.2603 35.9786 42.3738 36.7615C41.8576 36.5806 41.9885 36.2885 41.3776 36.1535C41.1315 36.0989 40.9035 36.0906 40.6592 36.1553C40.3142 36.2467 40.3382 36.3546 39.9407 36.4846C40.0695 35.9737 40.168 36.0221 40.4225 35.9765L40.2927 34.7881C40.285 34.7651 40.2345 34.6309 40.2262 34.6041C40.1917 34.4939 40.183 34.4354 40.1527 34.3339C40.0267 33.9106 39.6842 33.3517 39.6115 32.8523C38.9975 32.8707 39.758 32.9452 39.0399 33.0408C39.0657 33.2425 39.2063 33.3823 39.3274 33.6995L40.1604 35.9883C39.5666 35.909 39.7733 35.843 39.0594 35.4305C38.6477 35.1926 37.0302 33.9423 36.6615 34.1283C36.366 34.2775 36.9891 34.3134 36.1861 34.3874C36.1293 34.5533 36.1293 34.5394 36.208 34.7109C36.5147 34.7262 36.3862 34.7471 36.6682 34.8865L39.9251 36.6477C39.6699 37.1291 39.5579 37.1423 38.9289 36.7583C38.5714 36.5406 35.2379 36.2488 34.8206 36.2867C34.776 36.2314 34.5167 36.4725 34.7252 35.9769C34.2327 36.0339 33.8693 36.8436 33.7381 37.2446C33.6309 37.5711 33.6086 37.4818 33.4774 37.5802C33.3162 37.7012 33.2762 37.6737 33.216 37.936C32.9253 39.2026 33.539 41.9304 34.4666 42.7334V42.7334ZM34.6765 39.4583C34.5957 38.5161 34.1596 39.4784 34.1881 38.2876C34.1954 37.9812 34.1861 37.1117 34.4475 37.0314C34.4656 37.0258 34.4941 37.0094 34.5167 37.0039C34.743 36.9507 34.7527 37.0028 35.0204 37.0355L39.2505 37.2567C39.686 37.3531 39.3713 37.2393 39.576 37.3934C39.5533 37.4136 39.5238 37.4296 39.5001 37.4431C38.9529 37.7513 38.9836 37.5148 38.5533 37.7822C38.0082 38.1203 38.821 37.6529 38.4019 37.8786L37.136 38.4208C36.7165 38.5773 36.334 38.7449 35.9191 38.9306C35.5178 39.1105 35.0479 39.4283 34.6765 39.4583V39.4583Z" fill="#FFED00"/>
<path fill-rule="evenodd" clip-rule="evenodd" d="M42.4764 51.0985C36.8919 51.3542 31.8487 47.693 31.7533 41.8014C31.6701 36.6822 36.532 32.2461 41.9216 31.9359C45.9864 31.7018 50.2799 33.8321 51.699 37.0432C52.4612 38.7686 52.6447 38.8368 52.6938 41.1705C52.8083 46.6416 47.6958 50.8592 42.4764 51.0985ZM43.3226 51.8578C46.4949 51.3601 48.9937 50.0454 50.7595 48.1298C52.4981 46.2437 53.888 43.8436 53.6628 40.3142C53.2709 34.1729 46.7706 30.2815 41.2038 31.1548C40.8269 31.2139 40.2821 31.2518 39.957 31.3447C39.5996 31.4473 39.3531 31.5537 38.9267 31.6758C36.5334 32.3595 33.7464 34.3385 32.534 36.4106C31.3732 38.3947 30.6314 39.8478 30.8225 42.658C31.0408 45.865 32.9482 48.3214 34.8414 49.7181C36.8352 51.1893 40.1112 52.3617 43.3226 51.8578V51.8578Z" fill="#FFED00"/>
<path fill-rule="evenodd" clip-rule="evenodd" d="M56.4249 25.4713C56.3532 24.7622 55.694 23.6712 55.2867 23.2496C53.6762 21.5813 53.0479 22.1343 52.1207 21.6258C50.8606 20.9351 51.1307 20.8078 48.9274 19.9216C47.5069 19.3498 45.8052 18.6744 44.1484 18.3054C43.2535 18.1058 35.3251 16.6562 34.4319 16.9497C33.9174 17.1188 30.6595 20.3536 30.1182 20.8704L25.0781 25.6567C24.5692 26.1401 24.4457 26.138 24.3851 26.5749C24.3124 27.1004 24.226 27.5584 24.2796 28.1559C25.0099 27.9813 25.8738 26.2636 26.46 25.6675C28.3034 23.7929 31.8415 20.5758 33.8158 18.8894C34.4253 18.3687 35.0456 17.9639 36.1187 18.1827C36.9346 18.3489 37.8503 18.4887 38.6523 18.7023C40.093 19.0862 41.832 18.7889 44.2354 19.1234C47.6183 19.5943 50.4228 20.6266 53.0946 22.5106C53.6685 22.9154 54.2321 23.3967 54.7705 23.8962C55.0285 24.1355 55.2801 24.3737 55.5537 24.6526C56.0563 25.1653 56.0313 25.3447 56.4249 25.4713Z" fill="#FFED00"/>
<path fill-rule="evenodd" clip-rule="evenodd" d="M18.373 29.2865C18.4002 29.3007 18.3233 29.4924 18.7939 29.2214C20.0003 28.5272 21.1092 27.174 21.4215 27.4449C21.8221 28.1235 20.7967 29.2604 20.4204 29.6197C19.5314 30.4686 19.2644 30.5243 18.8005 30.9225C18.5001 31.1802 18.6953 30.8578 18.5544 31.2779C19.8447 31.0146 22.6425 28.2647 23.4709 26.572C23.8423 25.8127 23.3804 25.8079 23.1524 25.1756C22.9836 24.7078 22.6971 24.3252 22.4845 23.8581C22.3682 23.6025 22.238 23.4537 22.1371 23.2266C22.0487 23.0273 22.0473 22.9156 21.866 22.7285L21.5537 22.7393L21.2631 23.1914C20.5119 24.3725 19.0097 25.5627 17.8603 26.3435C17.5335 26.5657 17.6772 26.3887 17.5411 26.7045C18.0135 26.6784 22.6258 25.3269 19.5836 28.3095C19.2651 28.6215 18.6518 29.003 18.373 29.2865V29.2865Z" fill="#D42223"/>
<path fill-rule="evenodd" clip-rule="evenodd" d="M32.4749 17.4772C30.1494 16.7127 24.9951 21.5516 24.6272 25.4013C25.1155 25.2781 28.4591 21.9929 28.8427 21.6378C29.4233 21.1008 30.3641 20.3252 30.8031 19.7037L31.0874 19.3424C31.5149 18.6628 31.1264 19.1803 31.6552 18.628C31.9608 18.3087 32.4843 17.7985 32.4749 17.4772V17.4772Z" fill="#FFED00"/>
<path fill-rule="evenodd" clip-rule="evenodd" d="M37.9557 42.3658C38.215 42.3582 38.9296 42.4865 39.2975 42.5248C39.8896 42.5867 40.3727 42.5032 40.9467 42.5077L41.1092 42.7982C41.8367 42.7575 43.7107 41.8083 44.1409 41.3931L44.2019 41.1573L43.7243 41.1754C43.7414 41.1545 43.748 41.1194 43.749 41.1034C43.7494 41.0947 43.7535 41.0693 43.7532 41.0585C43.741 40.8095 43.6937 40.8112 43.433 40.4819C43.0932 40.0527 42.1761 38.9575 42.1179 38.5144C41.5502 38.6229 41.8722 38.8156 41.4945 38.5353C41.1781 38.6452 41.3038 38.6094 41.0034 38.6271C40.364 38.6646 40.7451 38.7182 40.2676 38.6653C40.2488 38.6633 40.2136 38.6626 40.1976 38.6612C40.1799 38.6598 40.16 38.6629 40.121 38.6636C39.9206 38.6657 39.2303 40.0812 39.0504 40.4047C38.8509 40.7632 38.3205 41.9029 38.0062 42.0674C37.6375 41.8636 38.2891 42.289 37.8714 41.9047C37.704 41.7503 37.9362 41.8181 37.6066 41.7221C37.6598 42.2507 37.688 42.1008 37.9557 42.3658V42.3658Z" fill="#D42223"/>
<path fill-rule="evenodd" clip-rule="evenodd" d="M36.5189 41.4341C36.8631 41.4932 37.0156 41.6118 37.3424 41.7475L37.6418 41.2157C37.7448 41.0397 37.8395 40.901 37.9641 40.7382L39.2485 38.9537C39.8461 38.2473 39.3132 38.7951 39.8353 38.6511C40.031 38.5975 39.9725 38.5972 40.0727 38.5054C40.0299 38.2497 40.1427 38.2417 39.662 38.0216C39.1566 37.79 36.0469 39.94 35.2383 40.0896C35.0319 39.6687 35.4005 39.7991 34.8809 39.6513L35.0309 40.2342C35.2429 40.5566 36.0862 41.19 36.5189 41.4341Z" fill="#D42223"/>
<path fill-rule="evenodd" clip-rule="evenodd" d="M34.6765 39.4584C35.0478 39.4285 35.5178 39.1106 35.9191 38.9308C36.334 38.7451 36.7165 38.5774 37.1359 38.4209L38.4019 37.8787C38.821 37.653 38.0082 38.1204 38.5533 37.7824C38.9835 37.5149 38.9529 37.7514 39.5001 37.4433C39.5237 37.4297 39.5533 37.4137 39.5759 37.3936C39.3713 37.2395 39.6859 37.3532 39.2505 37.2569L35.0204 37.0357C34.7527 37.003 34.7429 36.9508 34.5167 37.004C34.4941 37.0096 34.4655 37.0259 34.4474 37.0315C34.186 37.1118 34.1954 37.9813 34.1881 38.2877C34.1596 39.4786 34.5957 38.5162 34.6765 39.4584V39.4584Z" fill="#D42223"/>
<path fill-rule="evenodd" clip-rule="evenodd" d="M42.3104 36.8626C42.4855 36.9924 43.3125 37.1503 43.5666 37.2059L45.9718 37.7474C46.355 37.826 46.7257 37.9877 47.2259 38.0138C47.2109 37.137 47.4093 36.6814 47.3213 35.509C47.0206 35.5292 42.7633 36.4418 42.3104 36.8626Z" fill="#D42223"/>
<path fill-rule="evenodd" clip-rule="evenodd" d="M45.4058 40.6976C45.5182 40.2535 46.0024 39.8744 46.1197 39.3923C46.1774 39.0345 46.284 38.9294 46.3581 38.6227L46.2095 38.5531C46.1858 38.5434 46.1639 38.5333 46.1385 38.5239L45.821 38.4356C45.6425 38.3959 45.4726 38.382 45.3184 38.3458C45.0281 38.278 44.6853 38.1535 44.3957 38.0721L42.8575 37.6433C42.2032 37.5379 42.1273 37.8944 42.0796 38.5392C42.8746 38.4043 42.0723 38.3719 42.5331 38.1925C42.8467 38.3698 44.8997 40.4903 45.0239 40.8691C45.2867 40.7585 45.1875 40.8548 45.4058 40.6976V40.6976Z" fill="#D42223"/>
<path d="M78.4807 64.3612L80.377 56.6235H82.132C82.7968 56.6235 83.2204 56.6611 83.4032 56.7386C83.6848 56.8559 83.8828 57.108 83.997 57.4968C84.1108 57.886 84.0924 58.3886 83.9416 59.0045C83.825 59.4799 83.667 59.8782 83.4676 60.2023C83.2671 60.5264 83.0523 60.7803 82.8212 60.9661C82.5908 61.1497 82.3715 61.2721 82.1651 61.3316C81.8859 61.4057 81.4996 61.4432 81.0049 61.4432H80.2935L79.5785 64.3612H78.4807ZM81.1543 57.9312L80.6141 60.1355H81.2107C81.6409 60.1355 81.9374 60.0941 82.1024 60.0131C82.2671 59.9321 82.4115 59.8062 82.5365 59.6312C82.6611 59.4584 82.7512 59.2584 82.808 59.0278C82.8772 58.7451 82.8762 58.5127 82.8066 58.3291C82.7356 58.1455 82.6186 58.03 82.4522 57.9834C82.3304 57.949 82.0739 57.9312 81.6802 57.9312H81.1543Z" fill="white"/>
<path d="M83.1119 64.3612L85.0082 56.6235H89.0202L88.6996 57.9312H85.7855L85.3647 59.6493H88.0744L87.7538 60.957H85.0441L84.5303 63.0535H87.5502L87.23 64.3612H83.1119Z" fill="white"/>
<path d="M88.0543 64.3612L89.9506 56.6235H91.5942L91.2726 61.9009L93.526 56.6235H95.1735L93.2772 64.3612H92.2629L93.7519 58.2696L91.1905 64.3612H90.1358L90.5653 58.2696L89.0686 64.3612H88.0543Z" fill="white"/>
<path d="M94.7387 60.5394C94.9322 59.7503 95.178 59.0874 95.4745 58.5508C95.6938 58.1564 95.9497 57.8016 96.2396 57.4883C96.5295 57.1746 96.8198 56.9422 97.1112 56.7892C97.4989 56.5858 97.9138 56.4832 98.3555 56.4832C99.1554 56.4832 99.7068 56.8379 100.014 57.5457C100.319 58.2555 100.318 59.2408 100.008 60.5033C99.7015 61.755 99.2229 62.7351 98.5745 63.4411C97.925 64.1488 97.2017 64.5018 96.4056 64.5018C95.5995 64.5018 95.0433 64.1506 94.7405 63.4463C94.4369 62.7437 94.4359 61.7748 94.7387 60.5394ZM95.8794 60.4869C95.6646 61.3641 95.644 62.0287 95.8167 62.4826C95.99 62.9347 96.295 63.1618 96.7314 63.1618C97.1693 63.1618 97.5828 62.9368 97.9737 62.4881C98.3643 62.0377 98.6695 61.3641 98.8898 60.4654C99.1074 59.5775 99.1335 58.9146 98.9668 58.4788C98.8014 58.0409 98.4927 57.8232 98.0398 57.8232C97.588 57.8232 97.1693 58.0447 96.7847 58.4861C96.4001 58.9292 96.0979 59.5955 95.8794 60.4869Z" fill="white"/>
<path d="M99.5713 64.3612L101.468 56.6235H102.565L101.818 59.6709H103.953L104.7 56.6235H105.797L103.901 64.3612H102.803L103.633 60.9786H101.498L100.669 64.3612H99.5713Z" fill="white"/>
<path d="M105.842 64.3612L107.418 57.9312H105.813L106.134 56.6235H110.433L110.112 57.9312H108.515L106.94 64.3612H105.842Z" fill="white"/>
<path d="M112.293 64.3612L113.868 57.9312H112.264L112.584 56.6235H116.884L116.563 57.9312H114.966L113.391 64.3612H112.293Z" fill="white"/>
<path d="M120.103 64.3612H118.921L118.885 62.5996H116.711L115.829 64.3612H114.668L118.669 56.6235H119.828L120.103 64.3612ZM118.849 61.2919L118.798 58.4282L117.365 61.2919H118.849Z" fill="white"/>
<path d="M124.873 56.6235H128.612L127.036 63.0535H127.513L126.779 66.0469H125.864L126.277 64.3612H122.878L122.465 66.0469H121.549L122.283 63.0535H122.744C123.131 62.3927 123.468 61.6251 123.753 60.7536C124.039 59.8799 124.345 58.7757 124.673 57.4412L124.873 56.6235ZM125.597 57.9312C125.023 60.2726 124.453 61.9802 123.887 63.0535H125.939L127.194 57.9312H125.597Z" fill="white"/>
<path d="M127.593 64.3612L129.489 56.6235H130.587L128.69 64.3612H127.593Z" fill="white"/>
<path d="M134.477 64.3612H133.295L133.259 62.5996H131.085L130.203 64.3612H129.043L133.043 56.6235H134.203L134.477 64.3612ZM133.224 61.2919L133.173 58.4282L131.739 61.2919H133.224Z" fill="white"/>
<path d="M136.62 56.6235H140.291L139.971 57.9312H137.397L135.821 64.3612H134.724L136.62 56.6235Z" fill="white"/>
<path d="M138.961 64.3612L140.858 56.6235H141.956L141.209 59.6709H143.343L144.09 56.6235H145.187L143.291 64.3612H142.194L143.023 60.9786H140.888L140.059 64.3612H138.961Z" fill="white"/>
<path d="M144.861 60.5394C145.054 59.7503 145.3 59.0874 145.597 58.5508C145.816 58.1564 146.072 57.8016 146.362 57.4883C146.652 57.1746 146.942 56.9422 147.233 56.7892C147.621 56.5858 148.036 56.4832 148.478 56.4832C149.278 56.4832 149.829 56.8379 150.136 57.5457C150.442 58.2555 150.44 59.2408 150.131 60.5033C149.824 61.755 149.345 62.7351 148.697 63.4411C148.047 64.1488 147.324 64.5018 146.528 64.5018C145.722 64.5018 145.166 64.1506 144.863 63.4463C144.559 62.7437 144.558 61.7748 144.861 60.5394ZM146.002 60.4869C145.787 61.3641 145.767 62.0287 145.939 62.4826C146.112 62.9347 146.417 63.1618 146.854 63.1618C147.292 63.1618 147.705 62.9368 148.096 62.4881C148.487 62.0377 148.792 61.3641 149.012 60.4654C149.23 59.5775 149.256 58.9146 149.089 58.4788C148.924 58.0409 148.615 57.8232 148.162 57.8232C147.711 57.8232 147.292 58.0447 146.907 58.4861C146.523 58.9292 146.22 59.5955 146.002 60.4869Z" fill="white"/>
<path d="M153.883 61.5084L154.829 61.973C154.458 62.8248 154.031 63.4571 153.551 63.8713C153.072 64.2838 152.541 64.4911 151.96 64.4911C151.24 64.4911 150.734 64.1398 150.442 63.4372C150.151 62.7351 150.154 61.7748 150.453 60.5554C150.769 59.2676 151.248 58.2663 151.888 57.553C152.528 56.8396 153.229 56.4832 153.988 56.4832C154.652 56.4832 155.121 56.7642 155.398 57.3241C155.564 57.6556 155.632 58.131 155.603 58.7525L154.43 59.1201C154.464 58.7201 154.408 58.403 154.262 58.1706C154.115 57.9383 153.896 57.8232 153.606 57.8232C153.203 57.8232 152.826 58.0284 152.475 58.4409C152.123 58.8516 151.835 59.518 151.609 60.4403C151.37 61.4166 151.323 62.1136 151.467 62.5278C151.612 62.9437 151.882 63.151 152.277 63.151C152.568 63.151 152.852 63.0195 153.126 62.7545C153.4 62.4899 153.653 62.0756 153.883 61.5084Z" fill="white"/>
<path d="M156.053 64.3612L157.629 57.9312H156.024L156.345 56.6235H160.644L160.324 57.9312H158.727L157.151 64.3612H156.053Z" fill="white"/>
<path d="M161.093 56.6235H162.115L160.853 61.7747L164.311 56.6235H165.4L163.504 64.3612H162.482L163.724 59.2928L160.287 64.3612H159.197L161.093 56.6235Z" fill="white"/>
<path d="M166.258 56.6236H167.356L166.548 59.9196C166.801 59.8834 166.987 59.7955 167.109 59.6494C167.23 59.5054 167.462 59.1037 167.803 58.4446C168.234 57.6068 168.59 57.0848 168.869 56.881C169.146 56.6775 169.535 56.5749 170.04 56.5749C170.065 56.5749 170.119 56.5732 170.2 56.5693L169.917 57.7257L169.763 57.7205C169.538 57.7205 169.365 57.7602 169.242 57.8391C169.119 57.9184 169.006 58.0391 168.902 58.2012C168.798 58.3632 168.622 58.6968 168.373 59.2011C168.24 59.4692 168.114 59.6925 167.992 59.8727C167.87 60.0528 167.691 60.2222 167.456 60.3808C167.675 60.4778 167.827 60.6778 167.913 60.9769C167.998 61.276 168.069 61.6975 168.124 62.2432L168.344 64.3613H167.057L166.895 62.3691C166.892 62.3402 166.884 62.2863 166.872 62.2053C166.867 62.1782 166.851 62.0557 166.825 61.8415C166.78 61.4596 166.725 61.2217 166.66 61.1265C166.594 61.0308 166.471 60.9825 166.289 60.9786L165.46 64.3613H164.362L166.258 56.6236Z" fill="white"/>
<path d="M173.573 64.3612H172.391L172.355 62.5996H170.181L169.299 64.3612H168.138L172.139 56.6235H173.298L173.573 64.3612ZM172.319 61.2919L172.268 58.4282L170.834 61.2919H172.319Z" fill="white"/>
<path d="M177.479 64.3612L179.055 57.9312H177.45L177.771 56.6235H182.07L181.75 57.9312H180.152L178.577 64.3612H177.479Z" fill="white"/>
<path d="M182.224 56.6235H183.456L183.736 60.629L185.798 56.6235H186.939L183.665 62.5043C183.31 63.1418 182.988 63.6263 182.699 63.9595C182.411 64.2927 182.104 64.4586 181.776 64.4586C181.453 64.4586 181.208 64.428 181.041 64.3685L181.326 63.2048C181.478 63.2194 181.616 63.2263 181.741 63.2263C181.993 63.2263 182.191 63.1599 182.333 63.0285C182.475 62.8949 182.651 62.6087 182.858 62.1712L182.224 56.6235Z" fill="white"/>
<path d="M185.592 64.3612L187.488 56.6235H189.243C189.908 56.6235 190.332 56.6611 190.514 56.7386C190.796 56.8559 190.994 57.108 191.108 57.4968C191.222 57.886 191.204 58.3886 191.053 59.0045C190.936 59.4799 190.778 59.8782 190.579 60.2023C190.379 60.5264 190.163 60.7803 189.933 60.9661C189.702 61.1497 189.483 61.2721 189.276 61.3316C188.997 61.4057 188.611 61.4432 188.116 61.4432H187.405L186.69 64.3612H185.592ZM188.265 57.9312L187.725 60.1355H188.322C188.752 60.1355 189.049 60.0941 189.213 60.0131C189.378 59.9321 189.523 59.8062 189.648 59.6312C189.772 59.4584 189.863 59.2584 189.919 59.0278C189.988 58.7451 189.987 58.5127 189.918 58.3291C189.847 58.1455 189.73 58.03 189.563 57.9834C189.442 57.949 189.185 57.9312 188.791 57.9312H188.265Z" fill="white"/>
<path d="M192.56 56.6235H196.609L196.289 57.9312H193.337L192.897 59.7251H194.359C194.762 59.7251 195.08 59.7954 195.311 59.9359C195.542 60.0764 195.706 60.3355 195.801 60.7156C195.896 61.094 195.882 61.5389 195.757 62.0484C195.629 62.5708 195.424 63.0194 195.142 63.3922C194.862 63.7633 194.584 64.019 194.307 64.156C194.031 64.2927 193.668 64.3612 193.221 64.3612H190.664L192.56 56.6235ZM192.082 63.0535H193.145C193.484 63.0535 193.73 63.0302 193.879 62.9832C194.028 62.9366 194.175 62.8302 194.318 62.6626C194.461 62.497 194.562 62.2918 194.621 62.0484C194.708 61.6936 194.682 61.4363 194.544 61.2739C194.404 61.1139 194.12 61.0328 193.688 61.0328H192.577L192.082 63.0535Z" fill="white"/>
<path d="M196.044 64.3612L197.94 56.6235H199.038L197.142 64.3612H196.044Z" fill="white"/>
<path d="M198.185 64.3612L200.081 56.6235H201.178L200.432 59.6709H202.567L203.313 56.6235H204.411L202.514 64.3612H201.417L202.246 60.9786H200.111L199.282 64.3612H198.185Z" fill="white"/>
<path fill-rule="evenodd" clip-rule="evenodd" d="M186.846 12.7778C190.437 12.1389 192.106 13.896 191.309 17.602C190.721 20.3353 189.516 22.2054 186.666 22.6255C182.864 23.1865 181.224 21.6587 182.069 17.8368C182.705 14.9619 183.998 13.2849 186.846 12.7778ZM198.978 16.5621C200.45 8.45928 193.467 5.97709 186.119 7.13976C179.748 8.14766 175.585 12.3427 174.458 18.5936C172.959 26.9107 179.622 29.3501 187.327 28.1252C193.789 27.0981 197.834 22.8575 198.978 16.5621ZM138.397 15.9795C138.374 16.1106 138.356 16.216 138.342 16.287C139.371 16.3871 142.833 16.4536 143.776 16.2971C145.378 16.031 145.827 14.3143 145.342 12.7892C144.175 12.3109 142.509 12.3716 140.974 12.4276C140.501 12.4448 140.041 12.4616 139.611 12.462C138.981 12.6342 138.567 15.0089 138.397 15.9795ZM146.445 19.3353C145.807 19.5423 145.172 19.7485 144.644 20.056L145.584 21.9789L150.943 21.956L149.49 28.1714L141.981 28.2027L137.163 21.443L135.423 28.1929L127.868 28.1995L132.93 7.31291C134.835 7.10207 137.511 7.16291 139.909 7.21741C140.912 7.24022 141.867 7.26193 142.696 7.26214C143.023 7.26217 143.349 7.25952 143.672 7.25689C146.456 7.23424 149.077 7.21292 150.763 8.9131C153.205 11.3751 152.175 16.3131 148.287 18.5953C147.744 18.9142 147.093 19.1252 146.445 19.3353ZM117.137 40.7807C116.461 41.8434 115.608 43.1824 115.294 44.0477L120.94 44.0481L120.215 35.908C119.51 36.8422 118.841 37.9686 118.233 38.9943L118.233 38.9944L118.233 38.9944C118.051 39.3009 117.874 39.5984 117.704 39.8791C117.547 40.1362 117.351 40.4446 117.137 40.7807L117.137 40.7807ZM106.04 31.045H106.04H106.04C106.963 31.0639 108.162 31.0885 109.744 31.0883L105.237 49.8346C106.767 47.682 108.281 44.9407 109.652 42.4574L109.652 42.457C110.01 41.8097 110.358 41.1799 110.694 40.5827C110.968 40.0943 111.436 39.2933 111.985 38.3549L111.985 38.3546C113.508 35.7474 115.651 32.0803 115.983 31.1154L126.556 31.0876L128.061 47.8063C128.073 47.7927 128.085 47.7802 128.096 47.7686C128.111 47.752 128.125 47.7373 128.138 47.724L128.138 47.7239L128.138 47.7239C128.248 47.6083 128.263 47.592 128.397 47.2943L128.885 45.8093C129.898 45.8095 130.825 45.833 131.648 45.8538H131.648H131.648H131.648C135.4 45.9488 136.99 45.9891 134.799 43.525C133.464 42.0239 131.291 38.8326 132.29 35.7428C133.109 33.2077 135.015 31.2511 138.088 31.1026C140.391 30.9914 142.876 31.025 145.309 31.0578H145.309H145.309H145.309H145.309H145.309C146.454 31.0733 147.588 31.0886 148.686 31.0886L147.205 37.2967C146.548 37.3521 145.793 37.3226 145.025 37.2926C143.429 37.2303 141.777 37.1658 140.821 37.8546C140.81 38.7206 141.239 39.1831 141.831 39.82C142.446 40.4822 143.237 41.3329 143.888 43.0217C144.795 45.3714 144.361 47.9551 143.14 49.6635C141.097 52.5244 135.174 52.2941 130.44 52.11L130.44 52.1099L130.439 52.1099L130.439 52.1099L130.439 52.1099C129.753 52.0833 129.092 52.0576 128.472 52.0424L128.151 48.9474L127.252 52.048L120.54 52.0546L120.131 48.4514C119.177 48.134 116.903 48.2025 115.184 48.2542H115.184C114.633 48.2708 114.14 48.2856 113.765 48.2855C113.532 48.9974 112.932 49.9487 112.38 50.8233L112.38 50.8233L112.38 50.8234L112.38 50.8234C112.1 51.268 111.832 51.6926 111.631 52.056L97.9578 52.0563L99.9119 43.6001C99.2632 44.2841 98.1323 45.8213 96.9704 47.4009C95.3513 49.6018 93.6718 51.8849 93.152 52.056L90.8759 43.5479L88.705 52.0497L81.9555 52.0573L85.4662 37.3398L81.172 37.3336L82.6426 31.0966L93.7162 31.0855L96.2613 39.708L101.352 33.2283C101.69 32.8021 101.932 32.4563 102.127 32.1762L102.127 32.1762L102.127 32.1761C102.42 31.7567 102.611 31.4846 102.867 31.3108C103.342 30.9896 104.043 31.004 106.04 31.045ZM196.341 36.3056C196.112 36.3191 195.892 36.3322 195.684 36.3431L194.729 40.1406C195.193 40.1539 195.672 40.1798 196.153 40.2058L196.153 40.2058L196.154 40.2058C199.454 40.3843 202.824 40.5666 201.784 36.6881C200.538 36.0573 198.165 36.1977 196.341 36.3056ZM169.587 31.0977L187.516 31.0883L186.063 37.2936L174.863 37.336L174.335 39.7487L181.473 39.7612L180.588 43.4359L173.79 43.4158C173.219 43.5666 173.113 44.2754 172.966 45.2598L172.966 45.2599C172.94 45.4351 172.912 45.619 172.881 45.81L185.467 45.8089C185.984 45.6331 186.897 41.4403 187.331 39.4492C187.423 39.0265 187.494 38.7031 187.534 38.5383C187.691 37.8973 187.867 37.2203 188.046 36.5273L188.046 36.527L188.046 36.5268L188.046 36.5265L188.046 36.5264C188.518 34.702 189.019 32.7672 189.295 31.0879C192.572 31.0883 195.849 31.0883 199.127 31.0879L199.398 31.0878C202.488 31.0859 205.659 31.084 207.329 32.9111C209.538 35.3275 208.444 40.4491 204.502 42.5202C204.059 42.7529 203.35 43.0024 202.673 43.2406C201.958 43.4925 201.278 43.7317 200.985 43.9253L201.92 45.7898L208.146 45.8089L206.77 52.0114L198.479 52.0598C197.861 51.1661 197.183 50.2508 196.502 49.3303L196.502 49.3299C195.5 47.9762 194.49 46.6112 193.646 45.2865C193.347 45.6785 193.297 45.9083 193.193 46.3811C193.169 46.491 193.143 46.614 193.109 46.7553L191.788 52.0431L164.564 52.056L169.587 31.0977ZM149.751 31.0966L168.803 31.089L167.351 37.3078C165.92 37.3133 164.795 37.2881 163.907 37.2682C161.944 37.2243 161.136 37.2063 160.727 37.6012C160.441 37.8772 160.349 38.3551 160.193 39.1669C160.108 39.6101 160.004 40.1527 159.839 40.8164C159.644 41.5998 159.456 42.3799 159.264 43.1752L159.263 43.1825L159.262 43.1859L159.261 43.188L159.26 43.1927L159.257 43.2073L159.256 43.2102C159.151 43.6467 159.045 44.0878 158.935 44.5367C158.78 45.1769 158.616 45.9132 158.446 46.6827C158.023 48.589 157.554 50.699 157.045 52.0563L150.383 52.0556L153.857 37.3412L148.288 37.3277L149.751 31.0966ZM88.8387 7.31365L107.89 7.30565L106.439 13.5245C105.008 13.5299 103.883 13.5048 102.995 13.4849H102.995C101.032 13.441 100.224 13.423 99.8144 13.8179C99.5281 14.094 99.4365 14.5719 99.2808 15.3838L99.2808 15.3839C99.1958 15.827 99.0917 16.3697 98.9265 17.0334C98.7295 17.8248 98.5397 18.6128 98.346 19.4166L98.346 19.4166L98.346 19.4169C98.24 19.8567 98.133 20.3012 98.0229 20.7537C97.8676 21.3923 97.7047 22.1265 97.5344 22.894C97.1111 24.8016 96.6423 26.9144 96.1322 28.2733L89.47 28.2723L92.9442 13.5579L87.375 13.5443L88.8387 7.31365ZM131.273 7.3877L127.842 21.3853C126.265 26.2516 122.012 29.3299 112.6 28.1199C109.528 27.7248 105.53 24.4556 106.243 20.7568L109.438 7.36996H115.536L112.708 18.798C112.369 20.8952 112.22 23.3656 115.827 23.5774C120.942 23.8779 122.266 20.0136 122.733 17.6726L125.238 7.39152L131.273 7.3877ZM151.139 28.2614L163.626 28.2444C168.524 28.2444 173.219 25.2704 173.372 19.9889C173.42 18.3543 172.463 15.9872 170.725 15.3229C171.369 14.7717 172.486 13.1659 172.404 11.0479C172.326 9.05431 170.885 7.13485 165.966 7.10842L155.6 7.12129L151.139 28.2614ZM162.333 11.2586L161.782 14.0364L165.716 14.0942C166.921 13.9314 167.872 11.1745 165.542 11.2604L162.333 11.2586ZM160.74 18.9855L159.989 22.7166L165.358 22.7942C167.003 22.5758 168.3 18.8725 165.12 18.9879L160.74 18.9855Z" fill="url(#paint1_linear_70_950)"/>
<defs>
<linearGradient id="paint0_linear_70_950" x1="63.8116" y1="54.9462" x2="6.27545" y2="15.0098" gradientUnits="userSpaceOnUse">
<stop stop-color="#AE2B21"/>
<stop offset="1" stop-color="#DF2024"/>
</linearGradient>
<linearGradient id="paint1_linear_70_950" x1="197.108" y1="42.4575" x2="164.777" y2="-20.4927" gradientUnits="userSpaceOnUse">
<stop stop-color="#AE2B21"/>
<stop offset="1" stop-color="#DF2024"/>
</linearGradient>
</defs>
</svg>
