<svg width="87" height="80" viewBox="0 0 87 80" fill="none" xmlns="http://www.w3.org/2000/svg">
<path fill-rule="evenodd" clip-rule="evenodd" d="M10.4418 4.66939C16.7033 2.00204 24.225 3.22077 29.3322 8.32925C34.1001 13.0972 35.4794 19.9693 33.4713 25.9559L55.3696 47.8543C61.0145 46.1016 67.4159 47.4602 71.8871 51.9289C78.3079 58.351 78.3079 68.7613 71.8871 75.1834C65.465 81.6055 55.0534 81.6055 48.6325 75.1834C44.1626 70.7135 42.8052 64.3121 44.5579 58.6672L22.6584 36.7677C16.6717 38.7758 9.79958 37.3965 5.03167 32.6298C-0.0755922 27.5213 -1.29433 19.9997 1.37303 13.7382L15.3788 27.7451L24.4488 18.6764L10.4418 4.66939ZM69.2574 4.78251C69.733 4.88589 70.1988 5.01239 70.6562 5.15713L74.0703 1.60674C75.3402 2.33895 76.61 3.0736 77.8798 3.80582L76.5115 8.54211C76.8666 8.86686 77.2072 9.20743 77.5319 9.56259L82.2682 8.19424C83.0017 9.46407 83.7339 10.7327 84.4673 12.0037L80.9169 15.4167C81.0629 15.874 81.1881 16.3411 81.2915 16.8166L86.0728 17.9977C86.0728 19.4633 86.0728 20.9302 86.0728 22.3958L81.2915 23.5781C81.1894 24.0512 81.0629 24.5183 80.9181 24.9768L84.4673 28.391C83.7339 29.6608 83.0017 30.9294 82.2682 32.198L77.5332 30.8309C77.2084 31.186 76.8666 31.5266 76.5115 31.8514L77.8798 36.5877C76.61 37.3211 75.3402 38.0533 74.0703 38.7867L70.655 35.2363C70.1988 35.3823 69.733 35.5064 69.2574 35.611L68.0764 40.3923C66.6107 40.3923 65.1439 40.3923 63.677 40.3923L62.496 35.6122C62.0216 35.5076 61.5546 35.3835 61.096 35.2376L57.6831 38.7867C56.4132 38.0533 55.1446 37.3211 53.8748 36.5877L55.2419 31.8514C54.888 31.5266 54.5462 31.186 54.2215 30.8309L49.4852 32.198C48.753 30.9294 48.0207 29.6608 47.2873 28.391L50.8377 24.9756C50.6917 24.517 50.5665 24.0512 50.4631 23.5781L45.6818 22.3958C45.6818 20.9302 45.6818 19.4633 45.6818 17.9977L50.4619 16.8166C50.5652 16.3398 50.6905 15.874 50.8353 15.4167L47.2873 12.0037C48.0207 10.7327 48.753 9.46407 49.4852 8.19424L54.2227 9.56259C54.5474 9.20743 54.888 8.86564 55.2419 8.54211L53.8748 3.80582C55.1446 3.0736 56.4132 2.33895 57.6831 1.60674L61.0984 5.15713C61.5558 5.01239 62.0216 4.88589 62.496 4.78251L63.677 0C65.1439 0 66.6107 0 68.0764 0L69.2574 4.78251ZM65.8773 11.4296C70.7182 11.4296 74.6444 15.3546 74.6444 20.1967C74.6444 25.0388 70.7182 28.9639 65.8773 28.9639C61.0352 28.9639 57.1102 25.0388 57.1102 20.1967C57.1102 15.3546 61.0352 11.4296 65.8773 11.4296ZM53.3992 56.6968C57.188 52.908 63.3304 52.908 67.1192 56.6968C70.9079 60.4856 70.9079 66.6279 67.1192 70.4155C63.3304 74.2043 57.188 74.2043 53.3992 70.4155C49.6117 66.6279 49.6117 60.4856 53.3992 56.6968Z" fill="url(#paint0_linear_70_1155)"/>
<defs>
<linearGradient id="paint0_linear_70_1155" x1="78.4" y1="62.7956" x2="11.1165" y2="12.5891" gradientUnits="userSpaceOnUse">
<stop stop-color="#AE2B21"/>
<stop offset="1" stop-color="#DF2024"/>
</linearGradient>
</defs>
</svg>
