<svg width="80" height="80" viewBox="0 0 80 80" fill="none" xmlns="http://www.w3.org/2000/svg">
<path d="M78.065 36.1808L74.7581 33.7551C73.889 33.1177 73.2634 32.2029 72.9844 31.1618C72.7055 30.1208 72.7899 29.0158 73.2238 28.0292L74.8748 24.2749C75.1743 23.5941 75.3091 22.8522 75.2685 22.1095C75.2279 21.3668 75.0129 20.6441 74.641 20C74.2691 19.3558 73.7507 18.8083 73.1278 18.4018C72.5049 17.9952 71.795 17.7411 71.0556 17.66L66.9789 17.2128C65.9076 17.0952 64.9084 16.6159 64.1463 15.8538C63.3842 15.0917 62.9048 14.0925 62.7872 13.0211L62.34 8.94436C62.2589 8.20498 62.0048 7.49509 61.5982 6.8722C61.1917 6.2493 60.6442 5.7309 60 5.35899C59.3559 4.98708 58.6331 4.77211 57.8904 4.73149C57.1477 4.69087 56.4059 4.82574 55.725 5.12518L51.9707 6.77617C50.9842 7.21004 49.8791 7.29448 48.8381 7.01554C47.7971 6.73661 46.8823 6.11097 46.2448 5.24195L43.8192 1.93502C43.3792 1.33526 42.8042 0.847536 42.1407 0.511359C41.4772 0.175182 40.7438 0 40 0C39.2562 0 38.5228 0.175182 37.8593 0.511359C37.1958 0.847536 36.6208 1.33526 36.1809 1.93502L33.7552 5.24194C33.1177 6.11096 32.2029 6.7366 31.1619 7.01554C30.1208 7.29448 29.0158 7.21004 28.0292 6.77616L24.275 5.12517C23.5941 4.82573 22.8523 4.69085 22.1096 4.73147C21.3669 4.77209 20.6442 4.98706 20 5.35897C19.3558 5.73089 18.8083 6.24928 18.4018 6.87218C17.9953 7.49508 17.7412 8.20497 17.66 8.94435L17.2127 13.0211C17.0952 14.0925 16.6158 15.0917 15.8537 15.8538C15.0916 16.6158 14.0924 17.0952 13.0211 17.2128L8.94439 17.66C8.205 17.7411 7.49512 17.9952 6.87222 18.4018C6.24932 18.8083 5.73092 19.3558 5.35901 20C4.9871 20.6442 4.77213 21.3669 4.73151 22.1096C4.69089 22.8523 4.82577 23.5941 5.12521 24.275L6.7762 28.0292C7.21009 29.0157 7.29454 30.1208 7.0156 31.1618C6.73666 32.2029 6.11102 33.1176 5.24198 33.7551L1.93505 36.1808C1.33528 36.6207 0.84755 37.1957 0.511367 37.8593C0.175185 38.5228 0 39.2562 0 40C0 40.7438 0.175185 41.4772 0.511367 42.1407C0.84755 42.8043 1.33528 43.3793 1.93505 43.8192L5.24197 46.2449C6.11101 46.8824 6.73665 47.7972 7.01559 48.8382C7.29453 49.8793 7.21008 50.9843 6.77619 51.9709L5.1252 55.725C4.82576 56.4059 4.69089 57.1477 4.7315 57.8904C4.77212 58.6331 4.98709 59.3559 5.359 60C5.73092 60.6442 6.24931 61.1917 6.87221 61.5982C7.49511 62.0048 8.20499 62.2589 8.94438 62.34L13.021 62.7872C14.0924 62.9048 15.0916 63.3842 15.8537 64.1463C16.6158 64.9084 17.0952 65.9076 17.2128 66.9789L17.66 71.0556C17.7411 71.795 17.9952 72.5049 18.4018 73.1278C18.8083 73.7507 19.3558 74.2691 20 74.641C20.6442 75.0129 21.3669 75.2279 22.1096 75.2685C22.8523 75.3091 23.5941 75.1743 24.275 74.8748L28.0292 73.2238C29.0158 72.79 30.1208 72.7055 31.1619 72.9845C32.2029 73.2634 33.1177 73.889 33.7551 74.7581L36.1809 78.065C36.6208 78.6647 37.1958 79.1525 37.8593 79.4886C38.5228 79.8248 39.2562 80 40 80C40.7438 80 41.4772 79.8248 42.1407 79.4886C42.8042 79.1525 43.3792 78.6647 43.8192 78.065L46.2448 74.7581C46.8823 73.889 47.7971 73.2634 48.8381 72.9845C49.8791 72.7055 50.9842 72.79 51.9708 73.2238L55.725 74.8748C56.4059 75.1743 57.1478 75.3091 57.8905 75.2685C58.6332 75.2279 59.3559 75.0129 60 74.641C60.6442 74.2691 61.1917 73.7507 61.5982 73.1278C62.0048 72.5049 62.2589 71.795 62.34 71.0556L62.7873 66.9789C62.9048 65.9076 63.3842 64.9084 64.1463 64.1463C64.9084 63.3842 65.9076 62.9048 66.979 62.7872L71.0556 62.34C71.795 62.2589 72.5049 62.0048 73.1278 61.5982C73.7507 61.1917 74.2691 60.6442 74.641 60C75.0129 59.3559 75.2279 58.6332 75.2685 57.8904C75.3091 57.1477 75.1743 56.4059 74.8748 55.725L73.2238 51.9709C72.7899 50.9843 72.7055 49.8792 72.9844 48.8382C73.2634 47.7972 73.889 46.8824 74.7581 46.2449L78.065 43.8192C78.6647 43.3793 79.1525 42.8043 79.4886 42.1407C79.8248 41.4772 80 40.7438 80 40C80 39.2562 79.8248 38.5228 79.4887 37.8593C79.1525 37.1958 78.6648 36.6207 78.065 36.1808ZM58.3824 41.8821C56.574 56.9705 44.8173 62.7044 39.9999 63.6257C35.1827 62.7044 23.426 56.9705 21.6176 41.8821L20.2095 30.1343C20.1964 30.0251 20.2176 29.9146 20.2702 29.8181C20.3228 29.7216 20.4041 29.6438 20.5029 29.5956L39.768 20.198C39.8402 20.1627 39.9196 20.1444 40 20.1444C40.0804 20.1444 40.1597 20.1627 40.232 20.198L59.4971 29.5956C59.5959 29.6438 59.6772 29.7216 59.7298 29.8181C59.7824 29.9146 59.8036 30.0251 59.7905 30.1343L58.3824 41.8821ZM36.6555 44.6243L47.8958 33.384C48.3222 32.9388 48.8974 32.6658 49.5119 32.617C50.1265 32.5681 50.7376 32.7468 51.229 33.1191C51.4918 33.3327 51.7069 33.5991 51.8603 33.9011C52.0137 34.203 52.1019 34.5338 52.1194 34.8721C52.1368 35.2103 52.083 35.5485 51.9615 35.8646C51.84 36.1808 51.6534 36.4679 51.4139 36.7073L38.3658 49.7558C38.1412 49.9804 37.8746 50.1586 37.5811 50.2801C37.2876 50.4017 36.9731 50.4643 36.6554 50.4643C36.3378 50.4643 36.0232 50.4017 35.7298 50.2801C35.4363 50.1586 35.1696 49.9804 34.945 49.7558L28.6826 43.4933C28.2374 43.0669 27.9646 42.4918 27.9158 41.8774C27.8671 41.263 28.0459 40.652 28.4182 40.1608C28.6318 39.898 28.8983 39.6829 29.2003 39.5296C29.5023 39.3762 29.8331 39.2879 30.1713 39.2704C30.5096 39.253 30.8478 39.3067 31.1639 39.4281C31.4801 39.5496 31.7673 39.7361 32.0069 39.9755L36.6555 44.6243Z" fill="url(#paint0_linear_70_1156)"/>
<defs>
<linearGradient id="paint0_linear_70_1156" x1="72.8685" y1="62.7956" x2="7.13151" y2="17.204" gradientUnits="userSpaceOnUse">
<stop stop-color="#AE2B21"/>
<stop offset="1" stop-color="#DF2024"/>
</linearGradient>
</defs>
</svg>
